PathFileType	4	(X/Y/Z)	\\147.46.242.158\로컬 디스크 (e)\MOCAP Data\Iguana Capture\iguana\Project 2\Capture day 5 after broken\Session 1\Take01 ddong.trc
DataRate	CameraRate	NumFrames	NumMarkers	Units	OrigDataRate	OrigDataStartFrame	OrigNumFrames
120.0	120.0	18	23	mm	120.0	600	23111
Frame#	Time	ana:head1			ana:head2			ana:bone1			ana:bone2			ana:bone3			ana:tail1			ana:tail2			ana:tail3			ana:tail4			ana:Rforefoot1			ana:Rforefoot2			ana:Rforefoot3			ana:Lforefoot1			ana:Lforefoot2			ana:Lforefoot3			ana:RhindLeg1			ana:RhindLeg2			ana:RhindLeg3			ana:RhindLeg4			ana:LhindLeg1			ana:LhindLeg2			ana:LhindLeg3			ana:LhindLeg4			
		X1	Y1	Z1	X2	Y2	Z2	X3	Y3	Z3	X4	Y4	Z4	X5	Y5	Z5	X6	Y6	Z6	X7	Y7	Z7	X8	Y8	Z8	X9	Y9	Z9	X10	Y10	Z10	X11	Y11	Z11	X12	Y12	Z12	X13	Y13	Z13	X14	Y14	Z14	X15	Y15	Z15	X16	Y16	Z16	X17	Y17	Z17	X18	Y18	Z18	X19	Y19	Z19	X20	Y20	Z20	X21	Y21	Z21	X22	Y22	Z22	X23	Y23	Z23	

7826	65.208	63.74585	391.74799	50.72952	72.67441	385.78998	51.69054	90.98867	374.81512	44.98476	115.84602	361.10376	44.61288	148.22778	346.96982	38.63472	177.22078	332.32028	32.16815	205.13472	314.83453	22.07582	236.15091	297.81711	10.88980	270.05496	274.70557	6.01796	96.04427	384.22598	27.67649	107.43528	388.57584	16.85061	98.03948	387.04440	2.94935	81.05068	365.32629	33.78715	81.59434	352.79376	38.09903	72.42970	347.61179	25.42020	153.58368	352.96909	32.69350	164.30133	365.97852	31.11968	183.36890	361.39825	27.66735	194.02817	363.13135	17.17395	143.96495	335.62534	30.74598	136.43454	322.30597	21.58103	147.73108	317.45175	7.54419	135.39404	318.67801	3.48941	
7827	65.217	62.69178	392.70859	50.71546	71.61053	386.78656	51.68111	89.81062	375.61887	44.93637	114.35480	361.34998	44.50406	146.84511	347.35974	38.45945	176.01244	333.37155	31.84384	203.92508	315.90924	21.75124	234.86848	298.74353	10.69489	268.72897	275.52478	6.07746	95.33866	384.79816	27.63820	107.11940	388.52322	16.94740	98.05285	386.84061	2.96000	79.25410	366.69339	33.82211	78.50553	354.42273	38.04270	67.46770	350.91095	26.12659	151.66389	353.73828	32.53596	160.96317	367.65616	31.55883	180.01524	362.96140	27.50553	190.30930	365.82089	17.59640	142.85872	335.90411	30.56492	136.06013	322.17780	21.32489	147.77972	317.43536	7.61530	135.49304	318.59894	3.43372	
7828	65.225	61.74284	393.66678	50.72723	70.65359	387.77728	51.69426	88.72948	376.40988	44.89320	112.97305	361.62671	44.36244	145.56670	347.79242	38.23460	174.87943	334.50052	31.43626	202.77951	317.04044	21.35891	233.63249	299.68518	10.46695	267.43097	276.33014	6.13153	94.67063	385.37363	27.61534	106.80095	388.52054	17.12772	98.06663	386.62729	2.94709	77.58134	368.05020	33.74208	75.47661	356.20679	37.62197	62.95688	354.50461	26.43937	149.77647	354.56293	32.32647	157.40668	369.24271	31.95290	176.28325	364.60052	27.15769	185.83170	368.71054	17.93506	141.82910	336.24283	30.33081	135.75420	322.11670	21.08360	147.87973	317.41104	7.68826	135.64278	318.50345	3.40679	
7829	65.233	60.88000	394.62219	50.76264	69.78566	388.75949	51.72718	87.72755	377.18649	44.85684	111.69174	361.94366	44.19981	144.37915	348.28394	37.97497	173.81709	335.72128	30.96671	201.69472	318.24527	20.91689	232.43968	300.65973	10.21773	266.15045	277.13065	6.17855	94.01917	385.95267	27.61121	106.45920	388.57376	17.39397	98.06186	386.44370	2.90682	76.01740	369.38821	33.55546	72.53058	358.12817	36.85965	58.94149	358.25403	26.33083	147.92058	355.44742	32.08370	153.66212	370.70566	32.29531	172.17249	366.35022	26.63455	180.59006	371.74097	18.17588	140.86986	336.65634	30.05777	135.50732	322.14529	20.87213	148.01678	317.40131	7.77437	135.82451	318.40872	3.41269	
7830	65.242	60.07447	395.57388	50.81351	68.97928	389.73099	51.77146	86.77991	377.95038	44.82484	110.49407	362.31281	44.02757	143.26186	348.84927	37.69594	172.81413	337.04443	30.45965	200.66171	319.53903	20.44581	231.28201	301.68564	9.95973	264.87430	277.93814	6.21763	93.36140	386.53650	27.62340	106.07266	388.68539	17.73623	98.02194	386.32779	2.84474	74.54096	370.69839	33.27297	69.69062	360.15390	35.79433	55.43717	362.00729	25.79460	146.09317	356.39609	31.82521	149.77625	372.02850	32.57611	167.71068	368.23691	25.94939	174.63455	374.84341	18.29951	139.96945	337.15866	29.76245	135.30672	322.28668	20.70314	148.17374	317.43097	7.88453	136.01645	318.33130	3.45242	
7831	65.250	59.28928	396.51999	50.86679	68.19894	390.69003	51.81443	85.85613	378.70590	44.79139	109.35679	362.74741	43.85563	142.18880	349.50174	37.41206	171.85332	338.47546	29.94020	199.66594	320.93280	19.96657	230.14737	302.78009	9.70464	263.58807	278.76660	6.24852	92.67395	387.12805	27.64414	105.62080	388.85492	18.13344	97.93587	386.30969	2.77720	73.12646	371.97095	32.90685	66.97912	362.23639	34.47745	52.43400	365.61243	24.84670	144.28954	357.41299	31.56535	145.81047	373.21252	32.78171	162.95592	370.27335	25.11603	168.07298	377.94400	18.28223	139.11142	337.76190	29.46245	135.13675	322.56232	20.58604	148.33102	317.52371	8.02919	136.19533	318.28522	3.52478	
7832	65.258	58.48181	397.45746	50.90642	67.40357	391.63498	51.84102	84.92250	379.46030	44.74833	108.25212	363.26151	43.69163	141.13065	350.25113	37.13592	170.91255	340.01331	29.43185	198.68854	322.43179	19.49831	229.02049	303.95737	9.46219	262.27753	279.63113	6.27149	91.93410	387.73193	27.66146	105.08521	389.07977	18.55641	97.80067	386.40659	2.73053	71.74654	373.19525	32.47030	64.41660	364.31635	32.96988	49.90143	368.93015	23.52501	142.50432	358.50150	31.31385	141.83743	374.27670	32.89549	157.99564	372.45486	24.14736	161.06718	380.96863	18.09815	138.27524	338.47543	29.17493	134.97957	322.99030	20.52663	148.46704	317.69919	8.21869	136.33832	318.28076	3.62734	
7833	65.267	57.60698	398.38190	50.91561	66.54961	392.56430	51.83600	83.94452	380.22244	44.68677	107.15012	363.86853	43.54064	140.05753	351.10336	36.87749	169.96675	341.64972	28.95469	197.70760	324.03400	19.05693	227.88440	305.22708	9.23931	260.93033	280.54697	6.28724	91.12073	388.35471	27.66114	104.45005	389.35617	18.97192	97.62251	386.62003	2.73808	70.37450	374.36053	31.97719	62.02053	366.32678	31.33809	47.79407	371.84521	21.88722	140.73251	359.66339	31.07520	137.93654	375.25482	32.89916	152.94244	374.75735	23.05483	153.82301	383.84747	17.72269	137.43759	339.30527	28.91532	134.81575	323.58322	20.52733	148.55826	317.97110	8.46354	136.42494	318.32449	3.75734	
7834	65.275	56.62079	399.28729	50.87922	65.59436	393.47589	51.78629	82.88947	381.00204	44.59864	106.02123	364.58029	43.40509	138.94136	352.05954	36.64395	168.98969	343.36887	28.52434	196.69995	325.72964	18.65424	226.72183	306.59302	9.03992	259.53677	281.52765	6.29668	90.21454	389.00406	27.62905	103.70191	389.68005	19.34764	97.41602	386.93567	2.83535	68.98652	375.45615	31.44191	59.80416	368.19876	29.65026	46.05782	374.27527	20.00729	138.97043	360.89880	30.84900	134.18840	376.19147	32.77481	147.92685	377.13797	21.84893	146.57567	386.51944	17.13673	136.57381	340.25327	28.69647	134.62500	324.34665	20.58778	148.57964	318.34604	8.77464	136.43904	318.41888	3.91227	
7835	65.283	55.48395	400.16669	50.78598	64.49929	394.36740	51.68291	81.72869	381.80850	44.47826	104.83858	365.40564	43.28521	137.75821	353.11609	36.43996	167.95625	345.14832	28.15159	195.64317	327.50153	18.29782	225.51694	308.05246	8.86517	258.09103	282.58417	6.30088	89.19838	389.68872	27.55362	102.82944	390.04791	19.65714	97.20210	387.32654	3.05424	67.56344	376.47238	30.87938	57.77559	369.86749	27.97243	44.63559	376.17572	17.97060	137.21635	362.20538	30.63110	130.66899	377.13644	32.50739	143.08777	379.53824	20.54053	139.57077	388.93558	16.33088	135.65941	341.31711	28.52813	134.38654	325.27786	20.70585	148.50542	318.82379	9.16323	136.37062	318.56305	4.09041	
7836	65.292	54.16500	401.01215	50.63028	63.23310	395.23547	51.52237	80.43952	382.64966	44.32343	103.58003	366.34985	43.17964	136.49001	354.26517	36.26824	166.84418	346.95990	27.84275	194.51727	329.32584	17.99162	224.25653	309.59604	8.71422	256.59109	283.72330	6.30089	88.05700	390.41705	27.42813	101.82274	390.45776	19.88428	97.00397	387.75867	3.41711	66.09205	377.40143	30.30497	55.93728	371.27844	26.36510	43.47205	377.54080	15.86842	135.47093	363.57813	30.41530	127.44418	378.13840	32.08725	138.56142	381.88928	19.14281	133.04407	391.06128	15.30916	134.67154	342.49011	28.41687	134.07930	326.36554	20.87890	148.31039	319.39877	9.64062	136.21718	318.75311	4.29121	
7837	65.300	52.64288	401.81583	50.41302	61.77399	396.07611	51.30720	79.00655	383.53091	44.13615	102.22961	367.41367	43.08616	135.12547	355.49521	36.13031	165.63579	348.77213	27.60049	193.30635	331.17389	17.73696	222.93118	311.20847	8.58511	255.03867	284.94681	6.29773	86.77704	391.19662	27.25245	100.67294	390.91000	20.02644	96.84228	388.19888	3.93211	64.56561	378.23779	29.73429	54.28586	372.39270	24.88019	42.51724	378.40131	13.79168	133.73709	365.00937	30.19532	124.56479	379.23911	31.51236	134.47003	384.11877	17.67330	127.20169	392.87756	14.09149	133.59044	343.76181	28.36619	133.68208	327.58987	21.10501	147.97157	320.06180	10.21748	135.98430	318.98331	4.51577	
7838	65.308	50.90846	402.57037	50.14189	60.11116	396.88452	51.04577	77.42236	384.45441	43.92268	100.77828	368.59305	43.00250	133.66042	356.79205	36.02714	164.31911	350.55215	27.42497	191.99966	333.01462	17.53373	221.53572	312.86926	8.47585	253.43872	286.25092	6.29236	85.34690	392.03287	27.03399	99.37209	391.40799	20.09617	96.72941	388.62326	4.59053	62.98383	378.97910	29.18279	52.81261	373.19089	23.55862	41.72888	378.81833	11.82495	132.01974	366.48862	29.96667	122.06318	380.46823	30.78978	130.91171	386.15814	16.15556	122.20289	394.38095	12.71428	132.40042	345.11810	28.37697	133.17313	328.92395	21.38406	147.46989	320.80276	10.90302	135.68495	319.24634	4.76734	
7839	65.317	48.96511	403.26984	49.83054	58.24527	397.65555	50.75122	75.68750	385.41827	43.69299	99.22406	369.87909	42.92692	132.09726	358.14026	35.95972	162.88844	352.26819	27.31498	190.59229	334.81650	17.38155	220.06946	314.55490	8.38524	251.79831	287.62610	6.28566	83.75695	392.92850	26.78778	97.91339	391.95865	20.12085	96.66421	389.02457	5.36693	61.35218	379.62616	28.66510	51.50426	373.67474	22.42870	41.07328	378.87503	10.04090	130.32503	368.00314	29.72809	119.95142	381.84018	29.93621	127.95222	387.94949	14.62008	118.14786	395.58200	11.22904	131.09058	346.54260	28.44798	132.52992	330.33548	21.71844	146.79179	321.61264	11.70392	135.33745	319.53452	5.05207	
7840	65.325	46.82808	403.91025	49.49726	56.18800	398.38376	50.43983	73.80997	386.41687	43.45967	97.57140	371.25858	42.85864	130.44405	359.52402	35.92919	161.34433	353.89203	27.26881	189.08510	336.55063	17.28067	218.53577	316.24023	8.31347	250.12593	289.05783	6.27849	81.99998	393.88272	26.53548	96.29167	392.57312	20.14055	96.62737	389.41837	6.22226	59.68085	380.18292	28.19424	50.34422	373.86700	21.50535	40.52531	378.66699	8.49574	128.65953	369.53839	29.48228	118.22122	383.35223	28.97738	125.62004	389.45178	13.10398	115.07124	396.50323	9.69882	129.65520	348.01715	28.57635	131.72890	331.78979	22.11331	145.93004	322.48566	12.62333	134.96169	319.84085	5.37968	
7841	65.333	44.52294	404.49002	49.16293	53.96070	399.06400	50.12913	71.80419	387.44080	43.23662	95.83027	372.71466	42.79799	128.71294	360.92862	35.93674	159.69307	355.40067	27.28481	187.48430	338.19235	17.23225	216.94159	317.90063	8.26223	248.43034	290.52762	6.27172	80.07181	394.89090	26.30364	94.50406	393.26605	20.20407	96.57849	389.84503	7.10960	57.98342	380.65601	27.78080	49.31400	373.80890	20.79026	40.06749	378.29224	7.22606	127.02935	371.07870	29.23588	116.84593	384.98529	27.94629	123.90506	390.64401	11.64941	112.94245	397.17603	8.19301	128.09363	349.52316	28.75803	130.74529	333.25320	22.57633	144.88353	323.42014	13.65993	134.57419	320.15991	5.76405	
7842	65.342	42.08325	405.01019	48.84889	51.59240	399.69162	49.83588	69.68970	388.47739	43.03746	94.01476	374.22794	42.74629	126.91864	362.34088	35.98318	157.94565	356.77805	27.36138	185.80051	339.72299	17.23831	215.29626	319.51389	8.23443	246.72009	292.01456	6.26620	77.97211	395.94446	26.12108	92.55061	394.05542	20.36375	96.45531	390.36844	7.98175	56.27536	381.05420	27.43211	48.39462	373.55557	20.27295	39.68853	377.84210	6.24739	125.43929	372.60818	28.99858	115.78378	386.70627	26.88059	122.76093	391.52704	10.30076	111.67236	397.63757	6.78088	126.40995	351.04266	28.98808	129.55338	334.69659	23.11675	143.65587	324.41898	14.80727	134.18219	320.48959	6.22341	
7843	65.350	39.54767	405.47388	48.57475	49.11736	400.26294	49.57443	67.48962	389.51169	42.87407	92.14165	375.77771	42.70551	125.07693	363.75021	36.06826	156.11649	358.01535	27.49664	184.04736	341.13092	17.30098	213.61069	321.06165	8.23358	245.00273	293.49741	6.26282	75.70525	397.03134	26.01607	90.43456	394.96133	20.66947	96.17528	391.07019	8.79938	54.57260	381.38751	27.15176	47.56787	373.17068	19.93278	39.38159	377.39420	5.55453	123.89233	374.11136	28.78163	114.98258	388.47217	25.81925	122.11113	392.12207	9.10091	111.12535	397.92764	5.52492	124.61232	352.55933	29.26076	128.12729	336.09863	23.74409	142.25255	325.48880	16.05342	133.77722	320.83249	6.77989	
